# Blender v2.78 (sub 0) OBJ File: 'wall2.obj'
# www.blender.org
o Wall_Cube.000
v -2.690446 3.598875 -0.426900
v -2.690446 4.298874 -0.926900
v -2.690446 3.598875 -0.926900
v -2.690446 4.298874 -0.426900
v -1.690446 4.298874 -0.926900
v -1.690446 4.298874 -0.426900
v -1.690446 3.598875 -0.926900
v -1.690446 3.598875 -0.426900
v -2.499966 4.834683 -0.008914
v -2.499966 5.534683 -0.508914
v -2.499966 4.834683 -0.508914
v -2.499966 5.534683 -0.008914
v -1.499966 5.534683 -0.508914
v -1.499966 5.534683 -0.008914
v -1.499966 4.834683 -0.508914
v -1.499966 4.834683 -0.008914
v -2.876585 3.157468 0.583514
v -2.876585 7.157469 -5.416486
v -2.876585 3.157469 -5.416486
v -2.876585 7.157468 0.583514
v -1.876585 7.157469 -5.416486
v -1.876585 7.157468 0.583514
v -1.876585 3.157469 -5.416486
v -1.876585 3.157468 0.583514
v -2.789730 4.639438 -1.645306
v -2.789730 5.339438 -2.145306
v -2.789730 4.639439 -2.145306
v -2.789730 5.339438 -1.645306
v -1.789730 5.339438 -2.145306
v -1.789730 5.339438 -1.645306
v -1.789730 4.639439 -2.145306
v -1.789730 4.639438 -1.645306
v -2.408948 3.603232 -2.035013
v -2.408948 4.303233 -2.535013
v -2.408948 3.603232 -2.535013
v -2.408948 4.303233 -2.035013
v -1.408948 4.303232 -2.535013
v -1.408948 4.303232 -2.035013
v -1.408948 3.603232 -2.535013
v -1.408948 3.603232 -2.035013
v -2.512147 5.726452 -0.601288
v -2.512147 6.426452 -1.101288
v -2.512147 5.726452 -1.101288
v -2.512147 6.426452 -0.601288
v -1.512147 6.426452 -1.101288
v -1.512147 6.426452 -0.601288
v -1.512147 5.726452 -1.101288
v -1.512147 5.726452 -0.601288
v -2.629275 5.890722 -2.332916
v -2.629275 6.590722 -2.832916
v -2.629275 5.890722 -2.832916
v -2.629275 6.590722 -2.332916
v -1.629275 6.590722 -2.832916
v -1.629275 6.590722 -2.332916
v -1.629275 5.890722 -2.832916
v -1.629275 5.890722 -2.332916
v -2.539088 6.408888 -3.280786
v -2.539088 7.108888 -3.780786
v -2.539088 6.408888 -3.780786
v -2.539088 7.108888 -3.280786
v -1.539088 7.108888 -3.780786
v -1.539088 7.108888 -3.280786
v -1.539088 6.408888 -3.780786
v -1.539088 6.408888 -3.280786
v -2.210555 4.273608 -3.279667
v -2.210555 4.973608 -3.779667
v -2.210555 4.273608 -3.779667
v -2.210555 4.973608 -3.279667
v -1.210555 4.973608 -3.779667
v -1.210555 4.973608 -3.279667
v -1.210555 4.273608 -3.779667
v -1.210555 4.273608 -3.279667
v -2.683566 3.587814 5.529912
v -2.683566 4.287815 5.029912
v -2.683566 3.587814 5.029912
v -2.683566 4.287815 5.529912
v -1.683565 4.287815 5.029912
v -1.683565 4.287815 5.529912
v -1.683565 3.587814 5.029912
v -1.683565 3.587814 5.529912
v -2.493085 4.823623 5.947899
v -2.493085 5.523623 5.447898
v -2.493085 4.823624 5.447898
v -2.493085 5.523623 5.947899
v -1.493086 5.523623 5.447898
v -1.493086 5.523623 5.947899
v -1.493086 4.823623 5.447898
v -1.493086 4.823623 5.947899
v -2.869704 3.146409 6.540326
v -2.869704 7.146409 0.540327
v -2.869704 3.146409 0.540327
v -2.869704 7.146408 6.540327
v -1.869704 7.146409 0.540327
v -1.869704 7.146408 6.540327
v -1.869704 3.146409 0.540327
v -1.869704 3.146409 6.540326
v -2.782850 4.628378 4.311507
v -2.782850 5.328379 3.811507
v -2.782850 4.628379 3.811507
v -2.782850 5.328379 4.311507
v -1.782850 5.328379 3.811507
v -1.782850 5.328379 4.311507
v -1.782850 4.628378 3.811507
v -1.782850 4.628378 4.311507
v -2.402067 3.592173 3.921800
v -2.402067 4.292172 3.421800
v -2.402067 3.592173 3.421800
v -2.402067 4.292172 3.921800
v -1.402067 4.292172 3.421800
v -1.402067 4.292172 3.921800
v -1.402067 3.592173 3.421800
v -1.402067 3.592173 3.921800
v -2.505266 5.715392 5.355525
v -2.505266 6.415392 4.855525
v -2.505266 5.715393 4.855525
v -2.505266 6.415392 5.355525
v -1.505266 6.415392 4.855525
v -1.505266 6.415392 5.355525
v -1.505266 5.715392 4.855525
v -1.505266 5.715392 5.355525
v -2.622395 5.879663 3.623898
v -2.622395 6.579662 3.123898
v -2.622395 5.879663 3.123898
v -2.622395 6.579662 3.623898
v -1.622395 6.579662 3.123898
v -1.622395 6.579662 3.623898
v -1.622395 5.879663 3.123898
v -1.622395 5.879663 3.623898
v -2.532207 6.397828 2.676027
v -2.532207 7.097828 2.176027
v -2.532207 6.397828 2.176027
v -2.532207 7.097828 2.676027
v -1.532207 7.097828 2.176027
v -1.532207 7.097828 2.676027
v -1.532207 6.397828 2.176027
v -1.532207 6.397828 2.676027
v -2.203675 4.262548 2.677145
v -2.203675 4.962548 2.177145
v -2.203675 4.262548 2.177145
v -2.203675 4.962548 2.677145
v -1.203674 4.962548 2.177145
v -1.203674 4.962548 2.677145
v -1.203674 4.262548 2.177145
v -1.203674 4.262548 2.677145
v -2.731122 -0.317626 -0.444887
v -2.731122 0.382374 -0.944887
v -2.731122 -0.317626 -0.944887
v -2.731122 0.382374 -0.444887
v -1.731122 0.382374 -0.944887
v -1.731122 0.382374 -0.444887
v -1.731122 -0.317626 -0.944887
v -1.731122 -0.317626 -0.444887
v -2.540642 0.918182 -0.026901
v -2.540642 1.618183 -0.526901
v -2.540642 0.918183 -0.526901
v -2.540642 1.618182 -0.026901
v -1.540642 1.618183 -0.526901
v -1.540642 1.618182 -0.026901
v -1.540642 0.918183 -0.526901
v -1.540642 0.918182 -0.026901
v -2.917261 -0.759033 0.565527
v -2.917261 3.240968 -5.434473
v -2.917261 -0.759032 -5.434473
v -2.917261 3.240967 0.565527
v -1.917261 3.240968 -5.434473
v -1.917261 3.240967 0.565527
v -1.917261 -0.759032 -5.434473
v -1.917261 -0.759033 0.565527
v -2.830406 0.722938 -1.663293
v -2.830406 1.422938 -2.163293
v -2.830406 0.722938 -2.163293
v -2.830406 1.422938 -1.663293
v -1.830406 1.422938 -2.163293
v -1.830406 1.422938 -1.663293
v -1.830406 0.722938 -2.163293
v -1.830406 0.722938 -1.663293
v -2.449624 -0.313268 -2.053000
v -2.449624 0.386732 -2.553000
v -2.449624 -0.313268 -2.553000
v -2.449624 0.386732 -2.053000
v -1.449624 0.386732 -2.553000
v -1.449624 0.386732 -2.053000
v -1.449624 -0.313268 -2.553000
v -1.449624 -0.313268 -2.053000
v -2.552823 1.809952 -0.619275
v -2.552823 2.509952 -1.119275
v -2.552823 1.809952 -1.119275
v -2.552823 2.509952 -0.619275
v -1.552823 2.509952 -1.119275
v -1.552823 2.509952 -0.619275
v -1.552823 1.809952 -1.119275
v -1.552823 1.809952 -0.619275
v -2.669951 1.974222 -2.350903
v -2.669951 2.674222 -2.850903
v -2.669951 1.974222 -2.850903
v -2.669951 2.674222 -2.350903
v -1.669951 2.674222 -2.850903
v -1.669951 2.674222 -2.350903
v -1.669951 1.974222 -2.850903
v -1.669951 1.974222 -2.350903
v -2.579764 2.492388 -3.298773
v -2.579764 3.192388 -3.798773
v -2.579764 2.492388 -3.798773
v -2.579764 3.192388 -3.298773
v -1.579764 3.192388 -3.798773
v -1.579764 3.192388 -3.298773
v -1.579764 2.492388 -3.798773
v -1.579764 2.492388 -3.298773
v -2.251231 0.357107 -3.297654
v -2.251231 1.057107 -3.797654
v -2.251231 0.357107 -3.797654
v -2.251231 1.057107 -3.297654
v -1.251231 1.057107 -3.797654
v -1.251231 1.057107 -3.297654
v -1.251231 0.357107 -3.797654
v -1.251231 0.357107 -3.297654
v -2.724242 -0.328686 5.511925
v -2.724242 0.371314 5.011926
v -2.724242 -0.328686 5.011925
v -2.724242 0.371314 5.511926
v -1.724242 0.371314 5.011926
v -1.724242 0.371314 5.511926
v -1.724242 -0.328686 5.011925
v -1.724242 -0.328686 5.511925
v -2.533762 0.907122 5.929912
v -2.533762 1.607123 5.429912
v -2.533762 0.907123 5.429912
v -2.533762 1.607123 5.929912
v -1.533762 1.607123 5.429912
v -1.533762 1.607123 5.929912
v -1.533762 0.907123 5.429912
v -1.533762 0.907122 5.929912
v -2.910381 -0.770093 6.522340
v -2.910381 3.229908 0.522340
v -2.910381 -0.770092 0.522340
v -2.910381 3.229908 6.522340
v -1.910381 3.229908 0.522340
v -1.910381 3.229908 6.522340
v -1.910381 -0.770092 0.522340
v -1.910381 -0.770093 6.522340
v -2.823526 0.711878 4.293520
v -2.823526 1.411878 3.793520
v -2.823526 0.711878 3.793520
v -2.823526 1.411878 4.293520
v -1.823526 1.411878 3.793520
v -1.823526 1.411878 4.293520
v -1.823526 0.711878 3.793520
v -1.823526 0.711878 4.293520
v -2.442744 -0.324328 3.903812
v -2.442744 0.375672 3.403813
v -2.442744 -0.324328 3.403812
v -2.442744 0.375672 3.903813
v -1.442744 0.375672 3.403813
v -1.442744 0.375672 3.903813
v -1.442744 -0.324328 3.403812
v -1.442744 -0.324328 3.903812
v -2.545943 1.798892 5.337538
v -2.545943 2.498892 4.837538
v -2.545943 1.798892 4.837538
v -2.545943 2.498892 5.337538
v -1.545943 2.498892 4.837538
v -1.545943 2.498892 5.337538
v -1.545943 1.798892 4.837538
v -1.545943 1.798892 5.337538
v -2.663071 1.963162 3.605910
v -2.663071 2.663162 3.105910
v -2.663071 1.963162 3.105910
v -2.663071 2.663162 3.605910
v -1.663071 2.663162 3.105910
v -1.663071 2.663162 3.605910
v -1.663071 1.963162 3.105910
v -1.663071 1.963162 3.605910
v -2.572884 2.481328 2.658040
v -2.572884 3.181328 2.158041
v -2.572884 2.481328 2.158040
v -2.572884 3.181328 2.658041
v -1.572884 3.181328 2.158041
v -1.572884 3.181328 2.658041
v -1.572884 2.481328 2.158040
v -1.572884 2.481328 2.658040
v -2.244351 0.346047 2.659159
v -2.244351 1.046047 2.159159
v -2.244351 0.346047 2.159159
v -2.244351 1.046047 2.659159
v -1.244351 1.046047 2.159159
v -1.244351 1.046047 2.659159
v -1.244351 0.346047 2.159159
v -1.244351 0.346047 2.659159
vn -1.0000 -0.0000 0.0000
vn 0.0000 1.0000 0.0000
vn 1.0000 -0.0000 0.0000
vn 0.0000 -1.0000 0.0000
vn 0.0000 0.0000 -1.0000
vn 0.0000 0.0000 1.0000
s 1
f 1//1 2//1 3//1
f 4//2 5//2 2//2
f 6//3 7//3 5//3
f 8//4 3//4 7//4
f 5//5 3//5 2//5
f 4//6 8//6 6//6
f 1//1 4//1 2//1
f 4//2 6//2 5//2
f 6//3 8//3 7//3
f 8//4 1//4 3//4
f 5//5 7//5 3//5
f 4//6 1//6 8//6
f 9//1 10//1 11//1
f 12//2 13//2 10//2
f 14//3 15//3 13//3
f 16//4 11//4 15//4
f 13//5 11//5 10//5
f 12//6 16//6 14//6
f 9//1 12//1 10//1
f 12//2 14//2 13//2
f 14//3 16//3 15//3
f 16//4 9//4 11//4
f 13//5 15//5 11//5
f 12//6 9//6 16//6
f 17//1 18//1 19//1
f 20//2 21//2 18//2
f 22//3 23//3 21//3
f 24//4 19//4 23//4
f 21//5 19//5 18//5
f 20//6 24//6 22//6
f 17//1 20//1 18//1
f 20//2 22//2 21//2
f 22//3 24//3 23//3
f 24//4 17//4 19//4
f 21//5 23//5 19//5
f 20//6 17//6 24//6
f 25//1 26//1 27//1
f 28//2 29//2 26//2
f 30//3 31//3 29//3
f 32//4 27//4 31//4
f 29//5 27//5 26//5
f 28//6 32//6 30//6
f 25//1 28//1 26//1
f 28//2 30//2 29//2
f 30//3 32//3 31//3
f 32//4 25//4 27//4
f 29//5 31//5 27//5
f 28//6 25//6 32//6
f 33//1 34//1 35//1
f 36//2 37//2 34//2
f 38//3 39//3 37//3
f 40//4 35//4 39//4
f 37//5 35//5 34//5
f 36//6 40//6 38//6
f 33//1 36//1 34//1
f 36//2 38//2 37//2
f 38//3 40//3 39//3
f 40//4 33//4 35//4
f 37//5 39//5 35//5
f 36//6 33//6 40//6
f 41//1 42//1 43//1
f 44//2 45//2 42//2
f 46//3 47//3 45//3
f 48//4 43//4 47//4
f 45//5 43//5 42//5
f 44//6 48//6 46//6
f 41//1 44//1 42//1
f 44//2 46//2 45//2
f 46//3 48//3 47//3
f 48//4 41//4 43//4
f 45//5 47//5 43//5
f 44//6 41//6 48//6
f 49//1 50//1 51//1
f 52//2 53//2 50//2
f 54//3 55//3 53//3
f 56//4 51//4 55//4
f 53//5 51//5 50//5
f 52//6 56//6 54//6
f 49//1 52//1 50//1
f 52//2 54//2 53//2
f 54//3 56//3 55//3
f 56//4 49//4 51//4
f 53//5 55//5 51//5
f 52//6 49//6 56//6
f 57//1 58//1 59//1
f 60//2 61//2 58//2
f 62//3 63//3 61//3
f 64//4 59//4 63//4
f 61//5 59//5 58//5
f 60//6 64//6 62//6
f 57//1 60//1 58//1
f 60//2 62//2 61//2
f 62//3 64//3 63//3
f 64//4 57//4 59//4
f 61//5 63//5 59//5
f 60//6 57//6 64//6
f 65//1 66//1 67//1
f 68//2 69//2 66//2
f 70//3 71//3 69//3
f 72//4 67//4 71//4
f 69//5 67//5 66//5
f 68//6 72//6 70//6
f 65//1 68//1 66//1
f 68//2 70//2 69//2
f 70//3 72//3 71//3
f 72//4 65//4 67//4
f 69//5 71//5 67//5
f 68//6 65//6 72//6
f 73//1 74//1 75//1
f 76//2 77//2 74//2
f 78//3 79//3 77//3
f 80//4 75//4 79//4
f 77//5 75//5 74//5
f 76//6 80//6 78//6
f 73//1 76//1 74//1
f 76//2 78//2 77//2
f 78//3 80//3 79//3
f 80//4 73//4 75//4
f 77//5 79//5 75//5
f 76//6 73//6 80//6
f 81//1 82//1 83//1
f 84//2 85//2 82//2
f 86//3 87//3 85//3
f 88//4 83//4 87//4
f 85//5 83//5 82//5
f 84//6 88//6 86//6
f 81//1 84//1 82//1
f 84//2 86//2 85//2
f 86//3 88//3 87//3
f 88//4 81//4 83//4
f 85//5 87//5 83//5
f 84//6 81//6 88//6
f 89//1 90//1 91//1
f 92//2 93//2 90//2
f 94//3 95//3 93//3
f 96//4 91//4 95//4
f 93//5 91//5 90//5
f 92//6 96//6 94//6
f 89//1 92//1 90//1
f 92//2 94//2 93//2
f 94//3 96//3 95//3
f 96//4 89//4 91//4
f 93//5 95//5 91//5
f 92//6 89//6 96//6
f 97//1 98//1 99//1
f 100//2 101//2 98//2
f 102//3 103//3 101//3
f 104//4 99//4 103//4
f 101//5 99//5 98//5
f 100//6 104//6 102//6
f 97//1 100//1 98//1
f 100//2 102//2 101//2
f 102//3 104//3 103//3
f 104//4 97//4 99//4
f 101//5 103//5 99//5
f 100//6 97//6 104//6
f 105//1 106//1 107//1
f 108//2 109//2 106//2
f 110//3 111//3 109//3
f 112//4 107//4 111//4
f 109//5 107//5 106//5
f 108//6 112//6 110//6
f 105//1 108//1 106//1
f 108//2 110//2 109//2
f 110//3 112//3 111//3
f 112//4 105//4 107//4
f 109//5 111//5 107//5
f 108//6 105//6 112//6
f 113//1 114//1 115//1
f 116//2 117//2 114//2
f 118//3 119//3 117//3
f 120//4 115//4 119//4
f 117//5 115//5 114//5
f 116//6 120//6 118//6
f 113//1 116//1 114//1
f 116//2 118//2 117//2
f 118//3 120//3 119//3
f 120//4 113//4 115//4
f 117//5 119//5 115//5
f 116//6 113//6 120//6
f 121//1 122//1 123//1
f 124//2 125//2 122//2
f 126//3 127//3 125//3
f 128//4 123//4 127//4
f 125//5 123//5 122//5
f 124//6 128//6 126//6
f 121//1 124//1 122//1
f 124//2 126//2 125//2
f 126//3 128//3 127//3
f 128//4 121//4 123//4
f 125//5 127//5 123//5
f 124//6 121//6 128//6
f 129//1 130//1 131//1
f 132//2 133//2 130//2
f 134//3 135//3 133//3
f 136//4 131//4 135//4
f 133//5 131//5 130//5
f 132//6 136//6 134//6
f 129//1 132//1 130//1
f 132//2 134//2 133//2
f 134//3 136//3 135//3
f 136//4 129//4 131//4
f 133//5 135//5 131//5
f 132//6 129//6 136//6
f 137//1 138//1 139//1
f 140//2 141//2 138//2
f 142//3 143//3 141//3
f 144//4 139//4 143//4
f 141//5 139//5 138//5
f 140//6 144//6 142//6
f 137//1 140//1 138//1
f 140//2 142//2 141//2
f 142//3 144//3 143//3
f 144//4 137//4 139//4
f 141//5 143//5 139//5
f 140//6 137//6 144//6
f 145//1 146//1 147//1
f 148//2 149//2 146//2
f 150//3 151//3 149//3
f 152//4 147//4 151//4
f 149//5 147//5 146//5
f 148//6 152//6 150//6
f 145//1 148//1 146//1
f 148//2 150//2 149//2
f 150//3 152//3 151//3
f 152//4 145//4 147//4
f 149//5 151//5 147//5
f 148//6 145//6 152//6
f 153//1 154//1 155//1
f 156//2 157//2 154//2
f 158//3 159//3 157//3
f 160//4 155//4 159//4
f 157//5 155//5 154//5
f 156//6 160//6 158//6
f 153//1 156//1 154//1
f 156//2 158//2 157//2
f 158//3 160//3 159//3
f 160//4 153//4 155//4
f 157//5 159//5 155//5
f 156//6 153//6 160//6
f 161//1 162//1 163//1
f 164//2 165//2 162//2
f 166//3 167//3 165//3
f 168//4 163//4 167//4
f 165//5 163//5 162//5
f 164//6 168//6 166//6
f 161//1 164//1 162//1
f 164//2 166//2 165//2
f 166//3 168//3 167//3
f 168//4 161//4 163//4
f 165//5 167//5 163//5
f 164//6 161//6 168//6
f 169//1 170//1 171//1
f 172//2 173//2 170//2
f 174//3 175//3 173//3
f 176//4 171//4 175//4
f 173//5 171//5 170//5
f 172//6 176//6 174//6
f 169//1 172//1 170//1
f 172//2 174//2 173//2
f 174//3 176//3 175//3
f 176//4 169//4 171//4
f 173//5 175//5 171//5
f 172//6 169//6 176//6
f 177//1 178//1 179//1
f 180//2 181//2 178//2
f 182//3 183//3 181//3
f 184//4 179//4 183//4
f 181//5 179//5 178//5
f 180//6 184//6 182//6
f 177//1 180//1 178//1
f 180//2 182//2 181//2
f 182//3 184//3 183//3
f 184//4 177//4 179//4
f 181//5 183//5 179//5
f 180//6 177//6 184//6
f 185//1 186//1 187//1
f 188//2 189//2 186//2
f 190//3 191//3 189//3
f 192//4 187//4 191//4
f 189//5 187//5 186//5
f 188//6 192//6 190//6
f 185//1 188//1 186//1
f 188//2 190//2 189//2
f 190//3 192//3 191//3
f 192//4 185//4 187//4
f 189//5 191//5 187//5
f 188//6 185//6 192//6
f 193//1 194//1 195//1
f 196//2 197//2 194//2
f 198//3 199//3 197//3
f 200//4 195//4 199//4
f 197//5 195//5 194//5
f 196//6 200//6 198//6
f 193//1 196//1 194//1
f 196//2 198//2 197//2
f 198//3 200//3 199//3
f 200//4 193//4 195//4
f 197//5 199//5 195//5
f 196//6 193//6 200//6
f 201//1 202//1 203//1
f 204//2 205//2 202//2
f 206//3 207//3 205//3
f 208//4 203//4 207//4
f 205//5 203//5 202//5
f 204//6 208//6 206//6
f 201//1 204//1 202//1
f 204//2 206//2 205//2
f 206//3 208//3 207//3
f 208//4 201//4 203//4
f 205//5 207//5 203//5
f 204//6 201//6 208//6
f 209//1 210//1 211//1
f 212//2 213//2 210//2
f 214//3 215//3 213//3
f 216//4 211//4 215//4
f 213//5 211//5 210//5
f 212//6 216//6 214//6
f 209//1 212//1 210//1
f 212//2 214//2 213//2
f 214//3 216//3 215//3
f 216//4 209//4 211//4
f 213//5 215//5 211//5
f 212//6 209//6 216//6
f 217//1 218//1 219//1
f 220//2 221//2 218//2
f 222//3 223//3 221//3
f 224//4 219//4 223//4
f 221//5 219//5 218//5
f 220//6 224//6 222//6
f 217//1 220//1 218//1
f 220//2 222//2 221//2
f 222//3 224//3 223//3
f 224//4 217//4 219//4
f 221//5 223//5 219//5
f 220//6 217//6 224//6
f 225//1 226//1 227//1
f 228//2 229//2 226//2
f 230//3 231//3 229//3
f 232//4 227//4 231//4
f 229//5 227//5 226//5
f 228//6 232//6 230//6
f 225//1 228//1 226//1
f 228//2 230//2 229//2
f 230//3 232//3 231//3
f 232//4 225//4 227//4
f 229//5 231//5 227//5
f 228//6 225//6 232//6
f 233//1 234//1 235//1
f 236//2 237//2 234//2
f 238//3 239//3 237//3
f 240//4 235//4 239//4
f 237//5 235//5 234//5
f 236//6 240//6 238//6
f 233//1 236//1 234//1
f 236//2 238//2 237//2
f 238//3 240//3 239//3
f 240//4 233//4 235//4
f 237//5 239//5 235//5
f 236//6 233//6 240//6
f 241//1 242//1 243//1
f 244//2 245//2 242//2
f 246//3 247//3 245//3
f 248//4 243//4 247//4
f 245//5 243//5 242//5
f 244//6 248//6 246//6
f 241//1 244//1 242//1
f 244//2 246//2 245//2
f 246//3 248//3 247//3
f 248//4 241//4 243//4
f 245//5 247//5 243//5
f 244//6 241//6 248//6
f 249//1 250//1 251//1
f 252//2 253//2 250//2
f 254//3 255//3 253//3
f 256//4 251//4 255//4
f 253//5 251//5 250//5
f 252//6 256//6 254//6
f 249//1 252//1 250//1
f 252//2 254//2 253//2
f 254//3 256//3 255//3
f 256//4 249//4 251//4
f 253//5 255//5 251//5
f 252//6 249//6 256//6
f 257//1 258//1 259//1
f 260//2 261//2 258//2
f 262//3 263//3 261//3
f 264//4 259//4 263//4
f 261//5 259//5 258//5
f 260//6 264//6 262//6
f 257//1 260//1 258//1
f 260//2 262//2 261//2
f 262//3 264//3 263//3
f 264//4 257//4 259//4
f 261//5 263//5 259//5
f 260//6 257//6 264//6
f 265//1 266//1 267//1
f 268//2 269//2 266//2
f 270//3 271//3 269//3
f 272//4 267//4 271//4
f 269//5 267//5 266//5
f 268//6 272//6 270//6
f 265//1 268//1 266//1
f 268//2 270//2 269//2
f 270//3 272//3 271//3
f 272//4 265//4 267//4
f 269//5 271//5 267//5
f 268//6 265//6 272//6
f 273//1 274//1 275//1
f 276//2 277//2 274//2
f 278//3 279//3 277//3
f 280//4 275//4 279//4
f 277//5 275//5 274//5
f 276//6 280//6 278//6
f 273//1 276//1 274//1
f 276//2 278//2 277//2
f 278//3 280//3 279//3
f 280//4 273//4 275//4
f 277//5 279//5 275//5
f 276//6 273//6 280//6
f 281//1 282//1 283//1
f 284//2 285//2 282//2
f 286//3 287//3 285//3
f 288//4 283//4 287//4
f 285//5 283//5 282//5
f 284//6 288//6 286//6
f 281//1 284//1 282//1
f 284//2 286//2 285//2
f 286//3 288//3 287//3
f 288//4 281//4 283//4
f 285//5 287//5 283//5
f 284//6 281//6 288//6
